<svg width="12" height="12" viewBox="0 0 12 12" fill="none" xmlns="http://www.w3.org/2000/svg">
<path d="M5.85002 1.01501C6.69701 1.08205 7.51295 1.36382 8.22082 1.83372C8.92869 2.30362 9.50514 2.94615 9.89576 3.70067C10.2864 4.45519 10.4783 5.29681 10.4534 6.14608C10.4284 6.99536 10.1875 7.82427 9.75332 8.55459C9.31913 9.28491 8.70599 9.89253 7.97179 10.3201C7.23758 10.7477 6.40652 10.9811 5.55706 10.9984C4.70759 11.0156 3.86774 10.8162 3.11678 10.4187C2.36582 10.0213 1.72851 9.43909 1.26502 8.72701C2.66802 8.34701 4.58102 7.42501 5.42502 5.17601C5.97702 3.70201 6.00902 2.23701 5.85002 1.01501ZM11.456 6.00001C11.456 5.19443 11.2937 4.39711 10.9789 3.65559C10.6641 2.91407 10.2032 2.24353 9.62364 1.68398C9.04411 1.12442 8.35783 0.68729 7.60573 0.398662C6.85363 0.110035 6.05111 -0.0241833 5.24602 0.00401203C5.17396 0.00637854 5.10327 0.0242994 5.03879 0.0565459C4.97431 0.0887924 4.91756 0.134602 4.87245 0.190833C4.82733 0.247064 4.7949 0.312388 4.7774 0.382324C4.75989 0.452261 4.75771 0.525156 4.77102 0.596012C5.00102 1.81001 5.05102 3.32401 4.48802 4.82401C3.68802 6.95801 1.68602 7.66401 0.411018 7.89501C0.335117 7.90874 0.26342 7.93984 0.201537 7.98588C0.139654 8.03192 0.089262 8.09166 0.0543033 8.16042C0.0193445 8.22917 0.000766665 8.30508 2.3229e-05 8.38221C-0.000720207 8.45934 0.0163908 8.53559 0.0500177 8.60501C0.639782 9.8299 1.62803 10.8182 2.85289 11.408C4.07775 11.9978 5.46661 12.1542 6.79195 11.8515C8.1173 11.5488 9.30056 10.805 10.1479 9.7419C10.9953 8.67882 11.4565 7.35948 11.456 6.00001Z" fill="#626C7F"/>
</svg>
