<svg width="56" height="56" viewBox="0 0 56 56" fill="none" xmlns="http://www.w3.org/2000/svg">
<path d="M0 8C0 3.58172 3.58172 0 8 0H48C52.4183 0 56 3.58172 56 8V48C56 52.4183 52.4183 56 48 56H8C3.58172 56 0 52.4183 0 48V8Z" fill="#F6E7FF"/>
<path d="M24.8752 16.125C24.8752 15.2962 25.2044 14.5013 25.7904 13.9153C26.3765 13.3292 27.1714 13 28.0002 13C28.829 13 29.6238 13.3292 30.2099 13.9153C30.7959 14.5013 31.1252 15.2962 31.1252 16.125C31.1252 16.9538 30.7959 17.7487 30.2099 18.3347C29.6238 18.9208 28.829 19.25 28.0002 19.25C27.1714 19.25 26.3765 18.9208 25.7904 18.3347C25.2044 17.7487 24.8752 16.9538 24.8752 16.125ZM28.0002 10.5C27.1518 10.5 26.3144 10.6919 25.5507 11.0614C24.787 11.4308 24.1168 11.9682 23.5902 12.6333C23.0636 13.2984 22.6942 14.0741 22.5098 14.9021C22.3253 15.7302 22.3306 16.5893 22.5252 17.415L18.4952 15.79C17.5174 15.3962 16.4236 15.4043 15.4518 15.8125C14.4799 16.2207 13.7085 16.9961 13.3052 17.97C13.1055 18.4523 13.0035 18.9694 13.0049 19.4914C13.0063 20.0134 13.1112 20.5299 13.3134 21.0111C13.5157 21.4923 13.8113 21.9286 14.1832 22.2949C14.5551 22.6612 14.9959 22.9501 15.4802 23.145L20.5002 25.1725V31.1325L15.9677 39.6575C15.7222 40.1188 15.5701 40.6239 15.5199 41.1439C15.4697 41.664 15.5224 42.1889 15.675 42.6886C15.8277 43.1883 16.0772 43.653 16.4095 44.0562C16.7417 44.4595 17.1501 44.7933 17.6114 45.0388C18.543 45.5344 19.6333 45.6396 20.6425 45.3314C21.6516 45.0231 22.497 44.3266 22.9927 43.395L28.0002 33.975L33.0102 43.395C33.5054 44.3266 34.3505 45.0232 35.3595 45.3317C36.3684 45.6402 37.4586 45.5353 38.3902 45.04C39.3217 44.5447 40.0184 43.6996 40.3269 42.6907C40.6354 41.6817 40.5304 40.5916 40.0352 39.66L35.5002 31.13V25.1725L40.5202 23.145C41.0044 22.9501 41.4452 22.6612 41.8171 22.2949C42.189 21.9286 42.4846 21.4923 42.6869 21.0111C42.8891 20.5299 42.994 20.0134 42.9954 19.4914C42.9968 18.9694 42.8948 18.4523 42.6952 17.97C42.2923 16.9956 41.5211 16.2197 40.5492 15.811C39.5772 15.4023 38.4833 15.3938 37.5052 15.7875L33.4777 17.415C33.6723 16.589 33.6775 15.7298 33.4929 14.9015C33.3083 14.0733 32.9388 13.2975 32.4119 12.6323C31.885 11.9671 31.2144 11.4298 30.4504 11.0605C29.6864 10.6913 28.8487 10.4996 28.0002 10.5ZM15.6177 18.9225C15.7689 18.5588 16.0572 18.2692 16.4202 18.1163C16.7831 17.9633 17.1917 17.9593 17.5577 18.105L26.1277 21.5675C27.3288 22.0527 28.6715 22.0527 29.8727 21.5675L38.4427 18.105C38.8086 17.9593 39.2172 17.9633 39.5802 18.1163C39.9431 18.2692 40.2314 18.5588 40.3827 18.9225C40.4567 19.0999 40.4948 19.2903 40.4945 19.4826C40.4943 19.6749 40.4559 19.8652 40.3814 20.0425C40.307 20.2198 40.198 20.3805 40.0609 20.5152C39.9238 20.65 39.7612 20.7561 39.5827 20.8275L34.5627 22.8525C34.1002 23.0396 33.7043 23.3607 33.4259 23.7746C33.1474 24.1885 32.9992 24.6762 33.0002 25.175V31.1325C32.9999 31.5422 33.1003 31.9457 33.2927 32.3075L37.8277 40.835C37.9916 41.179 38.0166 41.573 37.8973 41.935C37.778 42.297 37.5237 42.5989 37.1873 42.7781C36.851 42.9572 36.4585 42.9997 36.0915 42.8967C35.7246 42.7937 35.4116 42.5531 35.2177 42.225L30.2077 32.8C29.9947 32.3994 29.6767 32.0643 29.2879 31.8306C28.899 31.5969 28.4538 31.4734 28.0002 31.4734C27.5465 31.4734 27.1013 31.5969 26.7124 31.8306C26.3236 32.0643 26.0056 32.3994 25.7927 32.8L20.7852 42.2175C20.694 42.3889 20.5701 42.5406 20.4203 42.6641C20.2706 42.7876 20.098 42.8803 19.9124 42.9371C19.7268 42.9938 19.5318 43.0135 19.3386 42.9949C19.1454 42.9763 18.9578 42.9199 18.7864 42.8288C18.615 42.7376 18.4633 42.6137 18.3398 42.4639C18.2163 42.3142 18.1236 42.1416 18.0668 41.956C18.0101 41.7704 17.9904 41.5754 18.009 41.3822C18.0276 41.189 18.084 41.0014 18.1752 40.83L22.7077 32.305C22.8996 31.944 23 31.5414 23.0002 31.1325V25.1725C23.0001 24.6745 22.8514 24.1879 22.573 23.775C22.2946 23.3621 21.8993 23.0417 21.4377 22.855L16.4177 20.825C16.2391 20.7536 16.0765 20.6475 15.9394 20.5127C15.8023 20.378 15.6933 20.2173 15.6189 20.04C15.5444 19.8627 15.506 19.6724 15.5058 19.4801C15.5056 19.2878 15.5436 19.0999 15.6177 18.9225Z" fill="#A729F5"/>
</svg>
